<svg xmlns="http://www.w3.org/2000/svg" fill="#00d0ff" viewBox="0 0 100 100" id="diamond">
<path 

style="line-height:normal;
text-indent:0;
text-align:start;
text-decoration-line:none;
text-decoration-style:solid;
text-decoration-color:#000;
text-transform:none;
block-progression:tb;
white-space:normal;
isolation:auto;
mix-blend-mode:normal;
solid-color:#000;
solid-opacity:1"

d="M50.603 957.366a45.403 45.403 0 0 0-7.91.586c-9.623 1.591-18.005 5.96-24.901 12.979-2.348 2.39-3.848 4.251-5.575 6.923-4.567 7.066-6.985 14.885-7.201 23.29-.235 9.103 2.175 17.833 7.007 25.366 6.508 10.146 16.726 17.317 28.273 19.83 1.718.374 4.804.849 6.344.973h.058c1.705.13 7.122-.015 8.803-.233 10.24-1.34 19.087-5.677 26.336-12.914 7.154-7.142 11.468-15.952 12.905-26.33.343-2.476.344-8.5.003-10.985-.323-2.355-.891-5.134-1.434-6.997a45.105 45.105 0 0 0-34.835-31.711 45.026 45.026 0 0 0-7.873-.777zm1.73 1.894c3.279.195 6.8.78 9.824 1.654.794.23 1.92.61 2.847.948.433.158.807.302 1.096.42-.082.214-.169.439-.299.757-.336.824-.812 1.952-1.344 3.178a310.162 310.162 0 0 1-1.392 3.166l-.208.457c-.136-.132-.233-.223-.406-.392a377.62 377.62 0 0 1-2.758-2.734 818.902 818.902 0 0 1-7.183-7.272l-.177-.182zm-4.692.01-1.637 1.616c-1.648 1.626-4.26 4.2-5.804 5.72-1.987 1.957-2.884 2.836-3.396 3.302l-.345-.79a762.051 762.051 0 0 1-2.871-6.686c.319-.153.803-.352 1.388-.566a46.76 46.76 0 0 1 4.246-1.308c2.868-.73 5.442-1.113 8.42-1.288zm2.36.285 5.846 5.902a948.86 948.86 0 0 1 4.478 4.55c.512.523.898.923 1.21 1.248-.248.125-.478.24-.829.413-1.03.507-2.455 1.194-4.021 1.94a4036.39 4036.39 0 0 1-6.466 3.074l-.458.215-.842-.401a1865.85 1865.85 0 0 1-7.648-3.686 170.374 170.374 0 0 0-3.183-1.511c.004-.006.007-.007.012-.013.393-.403.94-.95 1.543-1.54 1.21-1.189 4.15-4.08 6.534-6.427l3.824-3.765zm17.86 3.48c.05.017.045.01.108.036.463.19 1.262.593 2.47 1.243 3.118 1.678 6.454 4.057 8.877 6.307l-7.01.004-7.742.004.023-.054a781.929 781.929 0 0 1 3.088-7.124c.077-.175.13-.293.187-.418zm-35.996.117c.015.031.027.046.04.078.167.398 1.01 2.345 1.896 4.382l1.158 2.662.13.3c-.218.007-.335.018-.66.024-1.283.023-3.443.03-6.88.028l-6.81-.004c1.981-1.817 4.344-3.63 6.566-4.992a62.055 62.055 0 0 1 4.422-2.414c.058-.028.087-.04.138-.063zm-12.444 9.296h8.019c2.4 0 4.584.01 6.164.021.687.006 1.198.012 1.624.02-.15.497-.353 1.154-.578 1.878-.463 1.489-.972 3.134-1.134 3.666a329.544 329.544 0 0 1-1.427 4.572c-.19.591-.35 1.076-.466 1.414-.05.144-.087.246-.118.331a8.72 8.72 0 0 1-.568.227c-.706.263-2.043.732-4.562 1.613-1.93.675-4.47 1.567-5.65 1.984-.49.173-.903.317-1.27.444-.007-.435-.013-.948-.017-1.642-.01-1.617-.017-3.85-.017-6.307v-8.22zm52.848 0h8.083v3.018c0 2.063.038 6.025.085 8.821.025 1.516.034 2.78.029 3.659-.001.194-.006.29-.009.444-.366-.119-.793-.259-1.34-.441-1.27-.424-2.939-.99-4.6-1.558a665.722 665.722 0 0 1-4.564-1.578c-.624-.219-1.145-.404-1.51-.537-.133-.048-.218-.08-.306-.114-.012-.03-.018-.044-.03-.08-.08-.219-.19-.536-.321-.922-.26-.773-.602-1.824-.959-2.961-.858-2.734-1.527-4.872-1.98-6.335-.188-.604-.314-1.017-.426-1.384.43-.006.945-.011 1.637-.016 1.592-.01 3.792-.016 6.21-.016zm-35.213.404c.287.13.608.28.993.463 3.684 1.76 6.345 3.036 8.095 3.88.608.294.965.469 1.357.66l-7.433 3.04c-2.063.843-3.953 1.61-5.333 2.165-.414.167-.674.27-.987.395l.118-.37c.316-1.002.743-2.37 1.207-3.864 1.014-3.266 1.563-5.035 1.863-5.991.062-.2.077-.243.12-.378zm25.534.006.319 1c.333 1.049.777 2.457 1.23 3.896.8 2.54 1.482 4.723 1.766 5.65l-6.761-2.707a5668.897 5668.897 0 0 1-7.096-2.846c.708-.335 1.814-.86 3.185-1.516a899.632 899.632 0 0 1 5.945-2.823 138 138 0 0 1 1.412-.654zm19.59.724c1.746 1.955 3.59 4.394 4.966 6.687.415.69 1.014 1.797 1.537 2.82.482.941.86 1.76 1.003 2.119-.004 0-.004 0-.01.003-.222.089-.52.211-.876.358-.711.294-1.653.686-2.654 1.108a497.957 497.957 0 0 1-3.851 1.608v-2.746c0-2.102-.032-6.078-.071-8.85l-.045-3.108zm-64.58.28.002 6.186H17.6v.716a1719.517 1719.517 0 0 1-.015 7.737l-.079-.035c-.655-.297-1.557-.707-2.544-1.157a344.326 344.326 0 0 0-4.44-1.998l-.188-.08c.358-.899 1.688-3.51 2.532-4.931 1.264-2.13 2.913-4.33 4.733-6.438zm32.13 5.076.058.021.53.202c.456.176 1.108.43 1.903.743 1.592.627 3.762 1.49 6.126 2.436l8.319 3.33 3.122 7.676c1.78 4.377 3.35 8.24 3.466 8.529l.12.299-.375.876c-.272.637-1.892 4.448-3.605 8.478l-2.999 7.059-6.6 2.75a4403.597 4403.597 0 0 1-8.659 3.601l-1.52.627-4.057-1.656c-5.5-2.245-8.722-3.563-10.58-4.334-.93-.385-1.519-.634-1.876-.791-.146-.065-.23-.103-.3-.137a37.504 37.504 0 0 1-.407-.89c-.29-.656-.67-1.546-1.073-2.508-.808-1.932-2.375-5.667-3.483-8.3a409.88 409.88 0 0 1-1.419-3.414 101.57 101.57 0 0 1-.429-1.06l-.06-.157.185-.451c.184-.443.45-1.079.78-1.858.659-1.558 1.568-3.691 2.568-6.022l3.523-8.209 1.051-.428c3.344-1.363 11.773-4.81 12.933-5.29 1.277-.528 2.013-.829 2.43-.987.387-.146.42-.127.328-.135zm19.297 7.592.679.219c1.227.398 2.862.936 4.497 1.479 1.636.542 3.274 1.089 4.508 1.506.539.182.956.326 1.306.446l-.077.143a543.436 543.436 0 0 1-3.88 6.973 217.35 217.35 0 0 0-1.369 2.465c-.063.116-.107.187-.167.295l-.022-.05c-.342-.81-.807-1.933-1.309-3.168l-3.276-8.065c-.353-.868-.648-1.618-.89-2.242zm-38.45.156c-.073.175-.088.219-.182.443-.62 1.472-1.733 4.07-3.672 8.576-.672 1.561-1.288 2.985-1.738 4.021l-.167.381c-.057-.108-.079-.145-.144-.269a639.174 639.174 0 0 1-2.654-5.132 418.243 418.243 0 0 0-1.881-3.625c-.13-.244-.223-.433-.32-.63.347-.128.782-.285 1.332-.48 1.21-.432 2.816-.997 4.42-1.557 1.605-.56 3.207-1.115 4.41-1.527.246-.084.386-.13.595-.2zm59.814.219c.123.372.292.879.577 1.719 1.262 3.716 1.908 7.1 2.185 11.38l-.552-.54a1224.957 1224.957 0 0 1-4.284-4.227l-5.292-5.245c.42-.181 1.018-.437 1.7-.723.844-.354 2.562-1.078 3.821-1.61.625-.264 1.21-.505 1.646-.677l.199-.077zm-80.731.052c.217.094.44.19.749.327.812.357 1.888.837 2.965 1.32 1.078.482 2.157.969 2.974 1.341l.531.245c-.192.196-.322.333-.658.668a1415.12 1415.12 0 0 1-6.373 6.28 375.699 375.699 0 0 1-2.967 2.884c.172-2.721.557-5.469 1.12-7.823.197-.821.655-2.325 1.078-3.595.212-.634.416-1.215.572-1.625l.009-.022zm71.943 4.276c.313.302.708.686 1.222 1.188 1.128 1.103 2.676 2.627 4.37 4.303l5.643 5.583-5.638 5.524a991.91 991.91 0 0 1-4.37 4.258c-.508.49-.897.863-1.21 1.161-.173-.3-.364-.63-.618-1.078a666.94 666.94 0 0 1-2.296-4.087 680.35 680.35 0 0 1-2.294-4.139c-.314-.572-.576-1.056-.76-1.401-.075-.138-.125-.237-.171-.326l.003-.015c.08-.18.23-.479.455-.901.448-.845 1.2-2.197 2.368-4.264.714-1.265 1.84-3.26 2.501-4.437.302-.537.574-1.004.794-1.375zm-63.345.26.062.112c.295.542.692 1.297 1.117 2.127.856 1.669 2.24 4.355 3.079 5.972l1.352 2.61-2.85 5.64c-.83 1.64-1.592 3.13-2.153 4.208-.208.4-.352.672-.497.944l-.377-.356a522.218 522.218 0 0 1-2.61-2.503 1386.599 1386.599 0 0 1-7.245-7.042l-.92-.9 1.814-1.785c3.846-3.781 6.3-6.19 7.802-7.652.674-.656 1.099-1.065 1.426-1.375zm56.223 12.821.457.81a939.258 939.258 0 0 1 2.257 4.05 917.757 917.757 0 0 1 2.224 4.028c.247.451.429.787.591 1.088a2039.315 2039.315 0 0 0-9.837 3.21h-.002l-.11.037c-.54.178-.974.317-1.404.456l.351-.83 1.766-4.16c1.346-3.168 2.875-6.759 3.659-8.59.018-.043.03-.059.047-.098zm-67.602.23c.328.318.654.637 1.186 1.155 3 2.92 6.157 5.99 8.004 7.784.396.385.736.723 1.015 1.005-.29.16-.569.316-1.214.66-1.437.768-1.77.95-4.558 2.477-.54.297-1.035.565-1.405.762a22.237 22.237 0 0 1-.32-.82 60.782 60.782 0 0 1-1.049-3.164c-.86-2.864-1.42-6.238-1.66-9.86zm17.949.014c.204.477.414.97.698 1.64.744 1.76 1.71 4.057 2.617 6.223.353.844 1.123 2.676 1.711 4.074.22.52.392.942.561 1.355-.682-.245-3.45-1.218-6.181-2.175a877.09 877.09 0 0 1-3.522-1.241c-.316-.112-.527-.188-.751-.269.136-.28.287-.588.5-1.017.527-1.061 1.262-2.522 2.074-4.123a534.098 534.098 0 0 1 2.1-4.097c.08-.157.121-.232.193-.37zm68.318.051c-.3 4.696-1.049 8.35-2.635 12.75-.134.373-.262.682-.374.943-.16-.079-.317-.155-.503-.256a391.19 391.19 0 0 0-4.252-2.206 156.76 156.76 0 0 1-2.263-1.182c-.059-.031-.083-.046-.137-.075l.102-.104c.452-.459 1.08-1.084 1.771-1.763 4.644-4.567 7.417-7.27 8.291-8.107zm-73.559 11.42 1.03.351c1.17.402 2.73.944 4.303 1.493 1.573.55 3.158 1.106 4.372 1.537a231.863 231.863 0 0 1 1.943.7c.042.016.026.015.058.022a7.5 7.5 0 0 1 .324.817c.313.885.827 2.502 1.73 5.39a1264.752 1264.752 0 0 1 1.752 5.655c-.422.015-.927.019-1.608.026-1.569.018-3.737.028-6.122.028h-7.955l.08-8.118a2395.973 2395.973 0 0 1 .093-7.9zm60.852.105c.008.442.015.978.025 1.69.021 1.62.046 3.85.07 6.298l.082 8.182h-8.275c-2.473 0-4.721-.015-6.349-.028-.728 0-1.279-.016-1.72-.026l.02-.075c.16-.559.382-1.318.625-2.142.489-1.652 1.358-4.616 1.932-6.59l.937-3.222 6.59-2.14c1.911-.62 3.651-1.18 4.914-1.583.485-.155.823-.26 1.15-.363zm-62.707.107-.075 7.557a2026.429 2026.429 0 0 1-.082 7.026 56.289 56.289 0 0 1-1.388-1.635c-1.038-1.293-2.266-3.069-3.232-4.68-.375-.624-1.017-1.819-1.555-2.866a53.9 53.9 0 0 1-.686-1.377c-.03-.062-.043-.094-.068-.15.158-.097.296-.185.653-.386.998-.56 2.858-1.565 6.252-3.391l.182-.097zm64.542.065.384.203c.81.428 2.781 1.45 4.397 2.277.806.413 1.543.792 2.08 1.069l.31.16c-.088.192-.175.385-.301.645-.345.714-.8 1.609-1.191 2.33-.94 1.732-2.718 4.423-4.016 6.077a42.68 42.68 0 0 1-1.505 1.778l-.003-1.922a700.445 700.445 0 0 0-.09-8.808l-.065-3.809zm-16.603 4.61c-.628 2.13-2.446 8.324-2.867 9.766-.14.478-.265.882-.373 1.22-.348-.169-.784-.382-1.33-.652a985.556 985.556 0 0 1-4.336-2.152 950.674 950.674 0 0 1-4.294-2.156l-.59-.3.473-.202c1.116-.472 2.644-1.11 4.31-1.799a1765.95 1765.95 0 0 0 3.701-1.536l4.116-1.717c.568-.237.833-.333 1.19-.472zm-32.036.162c.77.294 1.786.691 2.912 1.138 2.338.93 5.052 2.035 6.487 2.656.35.152 1.734.72 3.139 1.29.46.188.814.334 1.192.49-.722.341-2.033.97-3.148 1.51a744.42 744.42 0 0 1-3.439 1.658l-2.908 1.39c-.358.172-.653.312-.926.44l-.342-1.074c-.36-1.137-.851-2.706-1.388-4.433-.537-1.728-1.031-3.316-1.396-4.483l-.183-.582zm16.015 6.596a138.484 138.484 0 0 1 1.883.895c1.22.591 2.818 1.377 4.406 2.164 1.589.787 3.167 1.576 4.346 2.173.476.24.825.42 1.144.586-.153.162-.28.296-.485.51-.685.714-1.632 1.69-2.673 2.753l-6.281 6.4-1.984 2.018-6.088-6.026a1083.908 1083.908 0 0 1-4.658-4.634c-.539-.54-.949-.955-1.275-1.287l.322-.165c.717-.359 1.711-.845 2.804-1.369l6.33-3.039c.636-.306 1.24-.58 1.69-.771.218-.093.395-.163.519-.208zm-22.228 6.196c3.436 0 5.596 0 6.879.028.335 0 .459.016.68.024-.728 1.764-2.997 7.25-3.15 7.613a20.108 20.108 0 0 1-.69-.326c-4.112-2.053-7.701-4.544-10.598-7.336h6.88zm37.02.252H79.21c-2.823 2.668-6.748 5.36-10.514 7.181h-.014c-.29.14-.538.255-.764.357l-.232-.476c-.315-.66-.738-1.566-1.188-2.537-.79-1.706-1.56-3.412-2.055-4.54zm-27.78.55c.325.303.713.67 1.23 1.169a463.688 463.688 0 0 1 4.61 4.513l1.22 1.21 3.947 3.912c-.481-.025-.732-.024-2.115-.154-2.598-.246-5.736-.884-8.335-1.695a64.342 64.342 0 0 1-2.536-.88c-.423-.156-.802-.3-1.1-.417.082-.225.17-.462.296-.79.325-.846.772-1.975 1.228-3.108.456-1.132.923-2.269 1.286-3.133.108-.257.182-.426.27-.627zm26.1.18c.224.508.965 2.152 1.726 3.828.773 1.704 1.527 3.366 1.698 3.746l-.843.32c-3.949 1.5-7.928 2.38-12.259 2.708-.349.026-.456.028-.781.048a811.45 811.45 0 0 1 6.001-6.147c1.334-1.355 2.615-2.653 3.566-3.61.371-.373.638-.64.892-.893z" 

color="#000" 
enable-background="accumulate" 
font-family="sans-serif" 
font-weight="400" 
overflow="visible" 
transform="translate(0 -952.362)"
>
</path>
</svg>